<?xml version="1.0" encoding="utf-8"?>
<!-- Generator: Adobe Illustrator 24.0.1, SVG Export Plug-In . SVG Version: 6.00 Build 0)  -->
<svg version="1.1" id="Layer_1" xmlns="http://www.w3.org/2000/svg" xmlns:xlink="http://www.w3.org/1999/xlink" x="0px" y="0px"
	 viewBox="0 0 114 55" style="enable-background:new 0 0 114 55;" xml:space="preserve">
<style type="text/css">
	.st0{fill:#00FF00;}
</style>
<g>
	<g>
		<path class="st0" d="M11.05,47.66v-5.9l-4.62-6.91h2.03l3.43,5.31l3.43-5.31h2.03l-4.62,6.91v5.9H11.05z"/>
		<path class="st0" d="M16.49,43.36c0-1.33,0.38-2.42,1.13-3.26c0.76-0.84,1.78-1.26,3.08-1.26s2.32,0.42,3.08,1.26
			c0.76,0.84,1.13,1.93,1.13,3.26c0,1.33-0.38,2.42-1.13,3.26s-1.78,1.26-3.08,1.26s-2.32-0.42-3.08-1.26S16.49,44.69,16.49,43.36z
			 M18.07,43.36c0,0.89,0.17,1.63,0.52,2.21c0.44,0.77,1.15,1.15,2.11,1.15s1.66-0.38,2.11-1.15c0.35-0.59,0.52-1.33,0.52-2.21
			c0-0.89-0.17-1.63-0.52-2.21c-0.44-0.77-1.15-1.15-2.11-1.15s-1.66,0.38-2.11,1.15C18.24,41.73,18.07,42.47,18.07,43.36z"/>
		<path class="st0" d="M33.73,39.06v8.6h-1.48v-1.15h-0.04c-0.59,0.91-1.43,1.37-2.52,1.37c-2.03,0-3.04-1.05-3.04-3.15v-5.67h1.48
			v5.67c0,1.19,0.61,1.78,1.82,1.78c0.68,0,1.24-0.21,1.67-0.62s0.64-0.96,0.64-1.65v-5.18H33.73z"/>
		<path class="st0" d="M46.04,42.5v-0.76c0-0.62-0.15-1.07-0.46-1.34c-0.31-0.27-0.83-0.4-1.56-0.4c-1.12,0-1.7,0.59-1.76,1.76
			l-1.48-0.09c0.19-1.88,1.28-2.83,3.26-2.83c2.32,0,3.47,0.89,3.47,2.66v4c0,0.65,0.21,0.97,0.63,0.97c0.14,0,0.29-0.03,0.45-0.09
			v1.22c-0.34,0.08-0.64,0.13-0.92,0.13c-0.8,0-1.3-0.4-1.49-1.19c-0.8,0.89-1.82,1.33-3.06,1.33c-0.77,0-1.42-0.23-1.95-0.69
			s-0.8-1.02-0.8-1.68c0-1.1,0.5-1.88,1.51-2.32C42.66,42.83,44.05,42.6,46.04,42.5z M46.04,44.46v-0.99
			c-1.46,0.2-2.45,0.4-2.95,0.59c-0.76,0.3-1.13,0.75-1.13,1.35c0,0.88,0.55,1.31,1.66,1.31c0.71,0,1.29-0.2,1.75-0.61
			C45.81,45.71,46.04,45.15,46.04,44.46z"/>
		<path class="st0" d="M50,47.66v-8.6h1.48v1.48h0.04c0.35-0.58,0.75-0.98,1.21-1.22c0.46-0.24,1.07-0.36,1.83-0.36v1.62
			c-0.38-0.02-0.71-0.04-0.99-0.04c-0.66,0-1.19,0.26-1.58,0.77c-0.34,0.46-0.5,0.97-0.5,1.53v4.82H50z"/>
		<path class="st0" d="M63.59,43.68h-6.53c0,0.89,0.22,1.61,0.67,2.16c0.47,0.59,1.11,0.88,1.93,0.88c1.28,0,2.09-0.64,2.41-1.93
			l1.46,0.18c-0.55,1.91-1.86,2.87-3.92,2.9c-1.27,0.01-2.29-0.42-3.04-1.3c-0.72-0.83-1.08-1.88-1.08-3.15
			c0-1.44,0.34-2.56,1.04-3.38c0.69-0.81,1.71-1.21,3.07-1.21c1.3,0,2.3,0.43,3.02,1.3c0.66,0.8,0.99,1.87,0.99,3.2V43.68z
			 M57.06,42.53h4.95c-0.22-1.69-1.08-2.54-2.59-2.54c-0.68,0-1.25,0.26-1.69,0.77C57.33,41.25,57.1,41.84,57.06,42.53z"/>
		<path class="st0" d="M70.34,47.66V34.85h1.48v5.36h0.04c0.59-0.91,1.43-1.37,2.52-1.37c2.03,0,3.04,1.05,3.04,3.15v5.67h-1.48
			v-5.53c0-1.28-0.61-1.93-1.82-1.93c-0.68,0-1.24,0.21-1.67,0.62s-0.64,0.96-0.64,1.65v5.18H70.34z"/>
		<path class="st0" d="M87.28,43.68h-6.53c0,0.89,0.22,1.61,0.67,2.16c0.47,0.59,1.11,0.88,1.93,0.88c1.28,0,2.09-0.64,2.41-1.93
			l1.46,0.18c-0.55,1.91-1.86,2.87-3.92,2.9c-1.27,0.01-2.29-0.42-3.04-1.3c-0.72-0.83-1.08-1.88-1.08-3.15
			c0-1.44,0.34-2.56,1.04-3.38c0.69-0.81,1.71-1.21,3.07-1.21c1.3,0,2.3,0.43,3.02,1.3c0.66,0.8,0.99,1.87,0.99,3.2V43.68z
			 M80.74,42.53h4.95c-0.22-1.69-1.08-2.54-2.59-2.54c-0.68,0-1.25,0.26-1.69,0.77C81.01,41.25,80.79,41.84,80.74,42.53z"/>
		<path class="st0" d="M89.02,47.66v-8.6h1.48v1.48h0.04c0.35-0.58,0.75-0.98,1.21-1.22c0.46-0.24,1.07-0.36,1.83-0.36v1.62
			c-0.38-0.02-0.71-0.04-0.99-0.04c-0.66,0-1.19,0.26-1.58,0.77c-0.34,0.46-0.5,0.97-0.5,1.53v4.82H89.02z"/>
		<path class="st0" d="M102.61,43.68h-6.53c0,0.89,0.22,1.61,0.67,2.16c0.47,0.59,1.11,0.88,1.93,0.88c1.28,0,2.09-0.64,2.41-1.93
			l1.46,0.18c-0.55,1.91-1.86,2.87-3.92,2.9c-1.27,0.01-2.29-0.42-3.04-1.3c-0.72-0.83-1.08-1.88-1.08-3.15
			c0-1.44,0.34-2.56,1.04-3.38c0.69-0.81,1.71-1.21,3.07-1.21c1.3,0,2.3,0.43,3.02,1.3c0.66,0.8,0.99,1.87,0.99,3.2V43.68z
			 M96.08,42.53h4.95c-0.22-1.69-1.08-2.54-2.59-2.54c-0.68,0-1.25,0.26-1.69,0.77C96.35,41.25,96.13,41.84,96.08,42.53z"/>
		<path class="st0" d="M105.1,47.66v-1.69h1.58v1.69H105.1z M105.6,45.02l-0.45-4.86v-5.31h1.48v5.31l-0.45,4.86H105.6z"/>
	</g>
	<g id="dTjyWM.tif_3_">
		<g>
			<path class="st0" d="M64.8,14.06c0.75,0,1.51,0,2.27,0c0,3.04,0,6.07,0,9.11c-0.38,0-0.75,0-1.13,0c0,1.14,0,2.28,0,3.42
				c-0.39,0-0.76,0-1.14,0c0,1.14,0,2.28,0,3.42c-3.8,0-7.59,0-11.39,0c0-1.14,0-2.27,0-3.41c-0.38,0-0.75,0-1.14,0
				c0-0.77,0-1.53,0-2.28l0,0c0.38,0,0.76,0,1.14,0c0,0.39,0,0.76,0,1.15c0.38,0,0.76,0,1.14,0c0,1.15,0,2.28,0,3.41
				c3.04,0,6.08,0,9.13,0c0-1.14,0-2.27,0-3.42c0.39,0,0.76,0,1.14,0c0-1.15,0-2.28,0-3.42c0.38,0,0.76,0,1.13,0
				c0-2.29,0-4.56,0-6.85c-0.38,0-0.75,0-1.13,0C64.8,14.8,64.8,14.43,64.8,14.06L64.8,14.06z"/>
			<path class="st0" d="M55.68,6.08c0.37,0,0.75,0,1.13,0c0,1.52,0,3.03,0,4.56c1.14,0,2.28,0,3.42,0c0,0.39,0,0.76,0,1.14
				c0.76,0,1.51,0,2.28,0c0,0.39,0,0.77,0,1.14l0,0c-0.76,0-1.52,0-2.29,0c0,1.15,0,2.28,0,3.41c-0.38,0-0.75,0-1.13,0
				c0-1.52,0-3.03,0-4.54c-0.77,0-1.52,0-2.29,0c0,1.14,0,2.27,0,3.4c-0.38,0-0.75,0-1.13,0c0-0.05,0-0.1,0-0.14
				c0-0.38,0-0.77,0-1.15C55.68,11.29,55.68,8.68,55.68,6.08L55.68,6.08z"/>
			<path class="st0" d="M51.12,16.34c0.38,0,0.75,0,1.14,0c0-3.42,0-6.83,0-10.26c0.39,0,0.77,0,1.15,0l0,0c0,0.04,0,0.09,0,0.13
				c0,4.84,0,9.68,0,14.51c0,0.06,0,0.11,0,0.17c-0.38,0-0.75,0-1.14,0c0-1.14,0-2.27,0-3.42c-0.38,0-0.75,0-1.14,0
				C51.12,17.09,51.12,16.71,51.12,16.34L51.12,16.34z"/>
			<path class="st0" d="M52.26,24.32c-0.37,0-0.75,0-1.14,0c0-0.38,0-0.75,0-1.14c-0.38,0-0.76,0-1.14,0c0-0.77,0-1.52,0-2.28
				c-0.38,0-0.76,0-1.14,0c0-0.77,0-1.53,0-2.28l0,0c0.38,0,0.75,0,1.14,0c0,0.39,0,0.76,0,1.15c0.38,0,0.76,0,1.14,0
				c0,0.77,0,1.52,0,2.28c0.38,0,0.75,0,1.14,0C52.26,22.81,52.26,23.57,52.26,24.32L52.26,24.32z"/>
			<path class="st0" d="M62.52,12.92c0.75,0,1.51,0,2.28,0c0,0.39,0,0.76,0,1.14l0,0c-0.38,0-0.76,0-1.15,0c0,1.15,0,2.28,0,3.41
				c-0.38,0-0.75,0-1.13,0C62.52,15.94,62.52,14.43,62.52,12.92L62.52,12.92z"/>
			<path class="st0" d="M48.84,18.62c-0.37,0-0.75,0-1.13,0c0-1.14,0-2.27,0-3.41c1.13,0,2.26,0,3.41,0c0,0.38,0,0.75,0,1.13l0,0
				c-0.76,0-1.52,0-2.28,0C48.84,17.1,48.84,17.86,48.84,18.62L48.84,18.62z"/>
			<path class="st0" d="M53.4,6.08c0-0.38,0-0.75,0-1.13c0.76,0,1.51,0,2.28,0c0,0.38,0,0.75,0,1.13c0,0,0,0,0,0
				C54.92,6.07,54.16,6.07,53.4,6.08L53.4,6.08z"/>
		</g>
	</g>
</g>
</svg>
